<?xml version="1.0" encoding="UTF-8"?>
<svg xmlns="http://www.w3.org/2000/svg" 
viewBox="50 0 1580 730" 
width="1580" height="730">
<style>
  text { font-family: Arial, sans-serif; }
  .header { font-size: 32px; font-weight: bold; }
  .title { font-size: 20px; font-weight: bold; }
  .body { font-size: 14px; }
</style>
<rect x="100" y="50" width="1000" height="80" fill="#a5d8ff" stroke="#1e1e1e" stroke-width="2" opacity="1.0" rx="10"/>
<text x="300" y="102" class="header" fill="#1e1e1e" font-size="32">Data Flow: End-to-End Journey</text>
<ellipse cx="150.0" cy="250.0" rx="50.0" ry="50.0" fill="#d0ebff" stroke="#1971c2" stroke-width="3" opacity="1.0"/>
<text x="120" y="259" class="title" fill="#1e1e1e" font-size="24">👤</text>
<defs><marker id="arrowhead" markerWidth="10" markerHeight="10" refX="5" refY="3" orient="auto"><polygon points="0 0, 10 3, 0 6" fill="#1e1e1e"/></marker></defs><line x1="210" y1="250" x2="250" y2="250" stroke="#1e1e1e" stroke-width="3" stroke-dasharray="none" marker-end="url(#arrowhead)"/>
<rect x="260" y="200" width="150" height="100" fill="#ffe0e0" stroke="#c92a2a" stroke-width="2" opacity="1.0" rx="10"/>
<text x="270" y="226" class="body" fill="#c92a2a" font-size="16">1. Input Layer</text>
<text x="270" y="252" class="body" fill="#1e1e1e" font-size="12">
  <tspan x="270" dy="0">• Sanitization</tspan>
  <tspan x="270" dy="14.399999999999999">• Validation</tspan>
  <tspan x="270" dy="14.399999999999999">• Rate limiting</tspan>
  <tspan x="270" dy="14.399999999999999">• IP blocking</tspan>
</text>
<defs><marker id="arrowhead" markerWidth="10" markerHeight="10" refX="5" refY="3" orient="auto"><polygon points="0 0, 10 3, 0 6" fill="#1e1e1e"/></marker></defs><line x1="420" y1="250" x2="460" y2="250" stroke="#1e1e1e" stroke-width="3" stroke-dasharray="none" marker-end="url(#arrowhead)"/>
<rect x="470" y="200" width="150" height="100" fill="#fff3e0" stroke="#f08c00" stroke-width="2" opacity="1.0" rx="10"/>
<text x="480" y="226" class="body" fill="#f08c00" font-size="16">2. Pipeline</text>
<text x="480" y="252" class="body" fill="#1e1e1e" font-size="12">
  <tspan x="480" dy="0">• Governance</tspan>
  <tspan x="480" dy="14.399999999999999">• Four Laws</tspan>
  <tspan x="480" dy="14.399999999999999">• Auth/Authz</tspan>
  <tspan x="480" dy="14.399999999999999">• Simulation</tspan>
</text>
<defs><marker id="arrowhead" markerWidth="10" markerHeight="10" refX="5" refY="3" orient="auto"><polygon points="0 0, 10 3, 0 6" fill="#1e1e1e"/></marker></defs><line x1="630" y1="250" x2="670" y2="250" stroke="#1e1e1e" stroke-width="3" stroke-dasharray="none" marker-end="url(#arrowhead)"/>
<rect x="680" y="200" width="150" height="100" fill="#e7d5ff" stroke="#5f3dc4" stroke-width="2" opacity="1.0" rx="10"/>
<text x="690" y="226" class="body" fill="#5f3dc4" font-size="16">3. Processing</text>
<text x="690" y="252" class="body" fill="#1e1e1e" font-size="12">
  <tspan x="690" dy="0">• AI inference</tspan>
  <tspan x="690" dy="14.399999999999999">• Agents exec</tspan>
  <tspan x="690" dy="14.399999999999999">• DB queries</tspan>
  <tspan x="690" dy="14.399999999999999">• State changes</tspan>
</text>
<defs><marker id="arrowhead" markerWidth="10" markerHeight="10" refX="5" refY="3" orient="auto"><polygon points="0 0, 10 3, 0 6" fill="#1e1e1e"/></marker></defs><line x1="840" y1="250" x2="880" y2="250" stroke="#1e1e1e" stroke-width="3" stroke-dasharray="none" marker-end="url(#arrowhead)"/>
<rect x="890" y="200" width="150" height="100" fill="#e0ffe0" stroke="#2f9e44" stroke-width="2" opacity="1.0" rx="10"/>
<text x="900" y="226" class="body" fill="#2f9e44" font-size="16">4. Storage</text>
<text x="900" y="252" class="body" fill="#1e1e1e" font-size="12">
  <tspan x="900" dy="0">• JSON files</tspan>
  <tspan x="900" dy="14.399999999999999">• Encryption</tspan>
  <tspan x="900" dy="14.399999999999999">• Audit logs</tspan>
  <tspan x="900" dy="14.399999999999999">• Backups</tspan>
</text>
<defs><marker id="arrowhead" markerWidth="10" markerHeight="10" refX="5" refY="3" orient="auto"><polygon points="0 0, 10 3, 0 6" fill="#1e1e1e"/></marker></defs><line x1="965" y1="310" x2="965" y2="370" stroke="#1e1e1e" stroke-width="3" stroke-dasharray="5,5" marker-end="url(#arrowhead)"/>
<rect x="890" y="380" width="150" height="100" fill="#d0ebff" stroke="#1971c2" stroke-width="2" opacity="1.0" rx="10"/>
<text x="900" y="406" class="body" fill="#1971c2" font-size="16">5. Output</text>
<text x="900" y="432" class="body" fill="#1e1e1e" font-size="12">
  <tspan x="900" dy="0">• Formatting</tspan>
  <tspan x="900" dy="14.399999999999999">• Sanitization</tspan>
  <tspan x="900" dy="14.399999999999999">• Serialization</tspan>
  <tspan x="900" dy="14.399999999999999">• Response build</tspan>
</text>
<defs><marker id="arrowhead" markerWidth="10" markerHeight="10" refX="5" refY="3" orient="auto"><polygon points="0 0, 10 3, 0 6" fill="#1e1e1e"/></marker></defs><line x1="880" y1="430" x2="180" y2="260" stroke="#1e1e1e" stroke-width="3" stroke-dasharray="5,5" marker-end="url(#arrowhead)"/>
<rect x="100" y="540" width="940" height="140" fill="#f8f9fa" stroke="#1e1e1e" stroke-width="2" opacity="1.0" rx="10"/>
<text x="120" y="570" class="title" fill="#1e1e1e" font-size="20">Data Transformations</text>
<text x="120" y="599" class="body" fill="#1e1e1e" font-size="14">
  <tspan x="120" dy="0">Input → Sanitize (remove SQL injection) → Validate (schema check) → Encrypt (Fernet)</tspan>
  <tspan x="120" dy="16.8">  → Store (JSON) → Process (AI inference) → Transform (serialize) → Decrypt</tspan>
  <tspan x="120" dy="16.8">  → Format (UI-ready) → Sanitize (XSS prevention) → Output</tspan>
  <tspan x="120" dy="16.8"></tspan>
  <tspan x="120" dy="16.8">Audit trail logged at EVERY stage with timestamps, user context, and action metadata!</tspan>
</text>
</svg>